<svg xmlns="http://www.w3.org/2000/svg" height="24px" viewBox="0 -960 960 960" width="24px" fill="#5084C1"><path d="M289.23-140q-29.92 0-51.11-21.19-21.2-21.2-21.2-51.12V-640q0-29.92 21.2-51.11 21.19-21.2 51.11-21.2h83.08v-75.38q0-29.92 21.19-51.12Q414.69-860 444.62-860h70.76q29.93 0 51.12 21.19 21.19 21.2 21.19 51.12v75.38h83.08q29.92 0 51.11 21.2 21.2 21.19 21.2 51.11v427.69q0 29.92-21.2 51.12Q700.69-140 670.77-140v4.61q0 14.7-10.35 25.04Q650.08-100 635.38-100q-14.69 0-25.03-10.35Q600-120.69 600-135.39V-140H360v4.61q0 14.7-10.35 25.04Q339.31-100 324.62-100q-14.7 0-25.04-10.35-10.35-10.34-10.35-25.04V-140Zm0-60h381.54q5.38 0 8.85-3.46 3.46-3.46 3.46-8.85V-640q0-5.39-3.46-8.85-3.47-3.46-8.85-3.46H289.23q-5.38 0-8.85 3.46-3.46 3.46-3.46 8.85v427.69q0 5.39 3.46 8.85 3.47 3.46 8.85 3.46Zm83.08-55.39h60v-341.53h-60v341.53Zm155.38 0h60v-341.53h-60v341.53Zm-95.38-456.92h95.38v-75.38q0-5.39-3.46-8.85t-8.85-3.46h-70.76q-5.39 0-8.85 3.46t-3.46 8.85v75.38ZM480-426.15Z"/></svg>